# xmcd
#
# Track frame offsets:
#	150
#	17552
#	27692
#	39716
#	50712
#	66167
#
# Disc length: 1692 seconds
#
# Revision: 0
# Processed by: cddbd v1.5.2PL0 Copyright (c) Steve Scherf et al.
# Submitted via: EasyCDDAExtractor 5.0.2.1
#
DISCID=52069a06
DTITLE=Various Artist - Youri Plays the PsycheBlues
DYEAR=2006
DGENRE=blues
TTITLE0=Youri - Blue Mama 
TTITLE1=Youri - Rode
TTITLE2=Youri - Pick Pick Cotton
TTITLE3=Youri - Papillon de Mars
TTITLE4=Youri - Last Look From My Love
TTITLE5=Youri - (Fred Mc Dowell) - You Gotta Move
EXTD=
EXTT0=
EXTT1=
EXTT2=
EXTT3=
EXTT4=
EXTT5=
PLAYORDER=
